<?xml version="1.0" encoding="utf-8"?>
<!-- Generator: Adobe Illustrator 24.3.0, SVG Export Plug-In . SVG Version: 6.00 Build 0)  -->
<svg version="1.1" id="Layer_1" xmlns="http://www.w3.org/2000/svg" xmlns:xlink="http://www.w3.org/1999/xlink" x="0px" y="0px"
	 viewBox="0 0 120 120" enable-background="new 0 0 120 120" xml:space="preserve">
<g>
	<path fill="#00A1F1" d="M83.014,28.274h-46.9c-1.079,0-1.954,0.875-1.954,1.954v58.625c0,1.079,0.875,1.954,1.954,1.954h46.9
		c1.079,0,1.953-0.875,1.953-1.954V30.228C84.967,29.149,84.093,28.274,83.014,28.274z M40.007,34.138H79.09v44.945H40.007V34.138z
		 M70.583,85.678h-3.554c-0.405,0-0.733-0.328-0.733-0.733c0-0.404,0.328-0.732,0.733-0.732h3.554c0.404,0,0.733,0.328,0.733,0.732
		C71.316,85.349,70.987,85.678,70.583,85.678z M79.105,85.678h-3.555c-0.404,0-0.733-0.328-0.733-0.733
		c0-0.404,0.328-0.732,0.733-0.732h3.555c0.404,0,0.732,0.328,0.732,0.732C79.838,85.349,79.51,85.678,79.105,85.678z"/>
	<polygon fill="#F65314" points="73.228,49.769 68.358,46.838 63.457,49.769 63.457,34.137 73.228,34.137 	"/>
	<g>
		<path fill="#7CBB00" d="M45.152,72.244c0,0.404,0.328,0.732,0.733,0.732h9.771c0.405,0,0.733-0.328,0.733-0.732v-6.169
			l-11.236,5.036V72.244z"/>
		<path fill="#7CBB00" d="M55.655,58.994h-9.771c-0.404,0-0.733,0.328-0.733,0.732v5.751l11.236-5.036v-0.715
			C56.389,59.322,56.06,58.994,55.655,58.994z"/>
		<polygon fill="#7CBB00" points="45.152,70.041 56.389,65.005 56.389,62.047 45.152,67.084 		"/>
	</g>
	<g>
		<path fill="#1A171B" d="M52.097,84.212h-3.554c-0.405,0-0.733,0.328-0.733,0.732c0,0.405,0.328,0.733,0.733,0.733h3.554
			c0.405,0,0.733-0.328,0.733-0.733C52.831,84.54,52.503,84.212,52.097,84.212z"/>
		<path fill="#1A171B" d="M43.576,84.212h-3.555c-0.404,0-0.733,0.328-0.733,0.732c0,0.405,0.328,0.733,0.733,0.733h3.555
			c0.404,0,0.732-0.328,0.732-0.733C44.308,84.54,43.98,84.212,43.576,84.212z"/>
		<path fill="#1A171B" d="M45.885,41.71h8.424c0.404,0,0.732-0.328,0.732-0.732c0-0.405-0.328-0.733-0.732-0.733h-8.424
			c-0.404,0-0.733,0.328-0.733,0.733C45.152,41.382,45.48,41.71,45.885,41.71z"/>
		<path fill="#1A171B" d="M45.885,47.96h13.299c0.404,0,0.732-0.328,0.732-0.732c0-0.405-0.328-0.733-0.732-0.733H45.885
			c-0.404,0-0.733,0.328-0.733,0.733C45.152,47.632,45.48,47.96,45.885,47.96z"/>
		<path fill="#1A171B" d="M45.885,54.21h7.807c0.404,0,0.732-0.328,0.732-0.733c0-0.404-0.328-0.732-0.732-0.732h-7.807
			c-0.404,0-0.733,0.328-0.733,0.732C45.152,53.882,45.48,54.21,45.885,54.21z"/>
		<path fill="#1A171B" d="M56.867,53.476c0,0.405,0.328,0.733,0.732,0.733h15.643c0.405,0,0.733-0.328,0.733-0.733
			c0-0.404-0.328-0.732-0.733-0.732H57.599C57.195,52.744,56.867,53.072,56.867,53.476z"/>
		<path fill="#1A171B" d="M60.542,60.46h4.87c0.405,0,0.733-0.328,0.733-0.733c0-0.404-0.328-0.732-0.733-0.732h-4.87
			c-0.404,0-0.733,0.328-0.733,0.732C59.808,60.132,60.138,60.46,60.542,60.46z"/>
		<path fill="#1A171B" d="M73.242,58.994h-3.921c-0.404,0-0.732,0.328-0.732,0.732c0,0.405,0.328,0.733,0.732,0.733h3.921
			c0.405,0,0.733-0.328,0.733-0.733C73.975,59.322,73.647,58.994,73.242,58.994z"/>
		<path fill="#1A171B" d="M73.242,65.261h-5.874c-0.404,0-0.733,0.328-0.733,0.733c0,0.404,0.329,0.732,0.733,0.732h5.874
			c0.405,0,0.733-0.328,0.733-0.732C73.975,65.589,73.647,65.261,73.242,65.261z"/>
		<path fill="#1A171B" d="M60.542,66.726h2.917c0.405,0,0.733-0.328,0.733-0.732c0-0.405-0.328-0.733-0.733-0.733h-2.917
			c-0.404,0-0.733,0.328-0.733,0.733C59.808,66.398,60.138,66.726,60.542,66.726z"/>
		<path fill="#1A171B" d="M68.357,71.511h-7.815c-0.404,0-0.733,0.328-0.733,0.733c0,0.404,0.329,0.732,0.733,0.732h7.815
			c0.404,0,0.732-0.328,0.732-0.732C69.09,71.839,68.762,71.511,68.357,71.511z"/>
		<path fill="#1A171B" d="M83.014,27.541h-46.9c-1.482,0-2.687,1.205-2.687,2.688v58.625c0,1.481,1.205,2.687,2.687,2.687h46.9
			c1.481,0,2.688-1.205,2.688-2.687V30.228C85.701,28.746,84.495,27.541,83.014,27.541z M84.234,88.853
			c0,0.673-0.547,1.221-1.221,1.221h-46.9c-0.674,0-1.221-0.548-1.221-1.221V30.228c0-0.674,0.547-1.222,1.221-1.222h46.9
			c0.674,0,1.221,0.548,1.221,1.222V88.853z"/>
		<path fill="#1A171B" d="M79.09,33.405H40.007c-0.404,0-0.733,0.328-0.733,0.732v44.945c0,0.405,0.329,0.733,0.733,0.733H79.09
			c0.404,0,0.732-0.328,0.732-0.733V34.138C79.822,33.733,79.494,33.405,79.09,33.405z M78.357,78.35H40.74V34.87h37.617V78.35z"/>
		<path fill="#1A171B" d="M28.297,47.481c-0.405,0-0.733,0.329-0.733,0.733v19.953c0,0.404,0.328,0.732,0.733,0.732
			c0.404,0,0.732-0.328,0.732-0.732V48.215C29.029,47.81,28.701,47.481,28.297,47.481z"/>
		<path fill="#1A171B" d="M28.297,72.321c-0.405,0-0.733,0.328-0.733,0.732v3.794c0,0.404,0.328,0.732,0.733,0.732
			c0.404,0,0.732-0.328,0.732-0.732v-3.794C29.029,72.649,28.701,72.321,28.297,72.321z"/>
		<path fill="#1A171B" d="M90.83,43.458c-0.404,0-0.732,0.328-0.732,0.733v19.953c0,0.404,0.328,0.733,0.732,0.733
			c0.405,0,0.733-0.329,0.733-0.733V44.191C91.563,43.786,91.235,43.458,90.83,43.458z"/>
		<path fill="#1A171B" d="M90.83,34.778c-0.404,0-0.732,0.328-0.732,0.732v3.794c0,0.404,0.328,0.732,0.732,0.732
			c0.405,0,0.733-0.328,0.733-0.732v-3.794C91.563,35.106,91.235,34.778,90.83,34.778z"/>
	</g>
</g>
</svg>
