<svg xmlns="http://www.w3.org/2000/svg" width="2500" height="2500" viewBox="0 0 191.32 191.343" id="xbox"><path fill="#fff" d="M0 0h191.32v191.343H0z"></path><path fill="#fff" d="M.847.848h189.76v189.76H.847z"></path><path fill="#fff" d="M173.335 135.269V13.316H19.18v121.953h154.155z"></path><linearGradient id="a" x1="47.692" x2="89.894" y1="92.659" y2="50.456" gradientUnits="userSpaceOnUse"><stop offset=".17" stop-color="#c9ca4c"></stop><stop offset=".418" stop-color="#c8c94c"></stop><stop offset=".578" stop-color="#c2c74d"></stop><stop offset=".713" stop-color="#b9c350"></stop><stop offset=".834" stop-color="#abbd52"></stop><stop offset=".944" stop-color="#9ab656"></stop><stop offset="1" stop-color="#90b258"></stop></linearGradient><path fill="url(#a)" d="M95.063 56.689L52.538 36.813v59.628l42.526-.155V56.689z"></path><linearGradient id="b" x1="100.064" x2="142.085" y1="50.57" y2="92.591" gradientUnits="userSpaceOnUse"><stop offset="0" stop-color="#637e3e"></stop><stop offset=".077" stop-color="#78974a"></stop><stop offset=".151" stop-color="#89ab54"></stop><stop offset=".192" stop-color="#90b258"></stop><stop offset=".197" stop-color="#93b357"></stop><stop offset=".229" stop-color="#a3ba54"></stop><stop offset=".266" stop-color="#b2c051"></stop><stop offset=".309" stop-color="#bdc54f"></stop><stop offset=".362" stop-color="#c4c84d"></stop><stop offset=".437" stop-color="#c8ca4c"></stop><stop offset=".644" stop-color="#c9ca4c"></stop></linearGradient><path fill="url(#b)" d="M137.203 36.813L95.039 56.689v39.752h42.164V36.813z"></path><linearGradient id="c" x1="96.49" x2="140.003" y1="81.581" y2="125.094" gradientUnits="userSpaceOnUse"><stop offset="0" stop-color="#66813f"></stop><stop offset=".226" stop-color="#90b258"></stop><stop offset=".259" stop-color="#96b457"></stop><stop offset=".379" stop-color="#a8bc53"></stop><stop offset=".507" stop-color="#b7c250"></stop><stop offset=".644" stop-color="#c1c74e"></stop><stop offset=".798" stop-color="#c8c94c"></stop><stop offset="1" stop-color="#c9ca4c"></stop></linearGradient><path fill="url(#c)" d="M144.463 119.538v-5.239l-34.977-44.683v49.922h34.977z"></path><linearGradient id="d" x1="93.826" x2="50.313" y1="81.863" y2="125.375" gradientUnits="userSpaceOnUse"><stop offset="0" stop-color="#577036"></stop><stop offset=".271" stop-color="#90b258"></stop><stop offset=".316" stop-color="#9ab656"></stop><stop offset=".409" stop-color="#abbd53"></stop><stop offset=".511" stop-color="#b9c350"></stop><stop offset=".623" stop-color="#c2c74d"></stop><stop offset=".756" stop-color="#c8c94c"></stop><stop offset=".961" stop-color="#c9ca4c"></stop></linearGradient><path fill="url(#d)" d="M80.813 119.835V69.914l-34.976 44.683v5.238h34.976z"></path><linearGradient id="e" x1="45.615" x2="78.685" y1="42.668" y2="42.668" gradientUnits="userSpaceOnUse"><stop offset="0"></stop><stop offset="0" stop-color="#839363"></stop><stop offset=".045" stop-color="#89986a"></stop><stop offset=".373" stop-color="#b5bf9f"></stop><stop offset=".653" stop-color="#d8decc"></stop><stop offset=".871" stop-color="#f0f3ec"></stop><stop offset="1" stop-color="#fff"></stop></linearGradient><path fill="url(#e)" d="M43.062 28.647l7.165 6.625c10.323 7.55 25.269 14.638 44.837 21.417v-3.698L43.062 28.647z"></path><linearGradient id="f" x1="95.148" x2="137.307" y1="43.669" y2="43.669" gradientUnits="userSpaceOnUse"><stop offset="0" stop-color="#dee6e1"></stop><stop offset="1" stop-color="#78875b"></stop></linearGradient><path fill="url(#f)" d="M137.203 36.813l5.084-6.163-47.26 22.333.01 3.706c20.647-8.475 34.694-15.1 42.166-19.876z"></path><linearGradient id="g" x1="109.33" x2="157.634" y1="93.696" y2="93.696" gradientUnits="userSpaceOnUse"><stop offset="0" stop-color="#fff"></stop><stop offset=".134" stop-color="#eff1ea"></stop><stop offset=".372" stop-color="#d3dac6"></stop><stop offset=".686" stop-color="#abb793"></stop><stop offset="1" stop-color="#839363"></stop></linearGradient><path fill="url(#g)" d="M109.33 65.153l.154 4.854c11.247 16.178 23.343 31.663 36.131 46.532l12.019 5.701-48.304-57.087z"></path><g><linearGradient id="h" x1="25.463" x2="71.416" y1="94.168" y2="94.168" gradientUnits="userSpaceOnUse"><stop offset="0" stop-color="#739148"></stop><stop offset="1" stop-color="#dee6e1"></stop></linearGradient><path fill="url(#h)" d="M80.805 70.248l.077-5.007-45.761 57.856 8.551-5.162c10.477-9.938 22.881-25.808 37.133-47.687z"></path></g><g><radialGradient id="i" cx="95.208" cy="77.254" r="106.59" gradientUnits="userSpaceOnUse"><stop offset="0"></stop><stop offset=".031" stop-color="#4b4b4d"></stop><stop offset=".082" stop-color="#747577"></stop><stop offset=".136" stop-color="#959799"></stop><stop offset=".191" stop-color="#b3b5b7"></stop><stop offset=".248" stop-color="#cdcfd0"></stop><stop offset=".307" stop-color="#e2e2e3"></stop><stop offset=".369" stop-color="#f0f1f1"></stop><stop offset=".437" stop-color="#fafafa"></stop><stop offset=".52" stop-color="#fff"></stop></radialGradient><path fill="url(#i)" d="M128.575 91.973c8.782 11.325 18.72 22.265 30.045 32.896l-1.694-110.166c-24.113 26.424-39.983 43.296-47.61 50.46 7.858 11.402 14.251 20.338 19.259 26.81z"></path></g><g><radialGradient id="j" cx="95.334" cy="77.216" r="108.146" gradientUnits="userSpaceOnUse"><stop offset="0"></stop><stop offset=".069" stop-color="#5a5a5c"></stop><stop offset=".171" stop-color="#8f9193"></stop><stop offset=".263" stop-color="#bcbec0"></stop><stop offset=".342" stop-color="#dedfe0"></stop><stop offset=".403" stop-color="#f4f4f5"></stop><stop offset=".441" stop-color="#fff"></stop></radialGradient><path fill="url(#j)" d="M129.548 38.431c10.632-5.393 17.411-10.631 20.492-15.484L92 16.053l-54.667 4.812c4.776 6.548 13.173 12.866 25.192 18.797 4.545 2.312 9.938 4.7 16.332 7.242 2.543 1.002 8.013 3.159 16.178 6.317 15.1-5.777 26.578-10.63 34.513-14.79z"></path></g><g><path fill="#fff" d="M34.28 13.316h-3.775l.308 112.4c6.164-4.545 13.328-11.71 21.648-21.571 9.321-11.017 18.72-23.959 28.428-38.905L67.021 51.835c-5.008-5.007-9.245-9.244-12.558-12.943-7.395-7.934-14.097-16.486-20.183-25.576z"></path></g><g><path fill="#fff" d="M19.147 130.477v4.775h154.155v-3.467c-11.864-6.778-22.265-13.097-31.201-18.874-17.18-11.325-32.896-23.188-47.07-35.746-13.944 13.79-29.429 26.04-46.609 36.748-7.858 4.931-17.025 10.092-27.58 15.716l-1.695.848z"></path></g><g fill="#9abf5e"><path d="M174.571 133.666h-.396l-.477 1.504a.643.643 0 0 0-.118.316 1.786 1.786 0 0 1-.119-.276l-.516-1.544h-.396v2.138h.238v-1.821l.634 1.821h.236l.635-1.782v1.782h.277v-2.138h.002zM171.561 133.942h.673v-.276h-1.663v.276h.713v1.862h.277v-1.862zM161.766 133.669l-11.928 9.651-11.869-9.651h-6.713l15.285 12.349-15.285 12.348h6.713l11.869-9.711 11.928 9.711h6.653l-15.225-12.348 15.225-12.349h-6.653zM129.278 146.018c0-5.515-1.438-9.59-4.195-12.349h-24.396c-2.878 2.759-4.316 6.834-4.316 12.349 0 5.514 1.438 9.59 4.316 12.349h24.396c2.757-2.76 4.195-6.895 4.195-12.349zm-4.076 0c0 1.858-.418 3.775-1.199 5.755l-1.139 2.577h-20.021l-1.139-2.577c-.839-1.979-1.199-3.896-1.199-5.755 0-2.937.78-5.695 2.338-8.272h20.021c1.559 2.576 2.338 5.335 2.338 8.272zM90.138 147.037v-2.038l1.798-.96c-.42-4.615-1.798-8.091-4.136-10.37H63.403c-2.338 2.219-3.776 5.695-4.136 10.31h-3.955v4.077h3.955c.36 4.614 1.798 8.032 4.136 10.311H87.8c2.338-2.339 3.715-5.755 4.136-10.311l-1.798-1.019zm-4.556-9.292a17.578 17.578 0 0 1 2.218 6.233H63.403c.36-2.337 1.079-4.375 2.218-6.233h19.961zm2.218 10.311a17.869 17.869 0 0 1-2.218 6.294H65.621c-1.139-1.858-1.858-3.956-2.218-6.294H87.8z"></path><path d="M41.885 146.018l15.224-12.349h-6.713l-11.868 9.651-11.928-9.651h-6.594l15.165 12.349-15.165 12.348H26.6l11.928-9.711 11.868 9.711h6.713l-15.224-12.348z"></path></g><g fill="#90b258"><path d="M148.2 30.858h-.396l-.476 1.504a.646.646 0 0 0-.118.317 1.846 1.846 0 0 1-.119-.277l-.516-1.544h-.396v2.138h.238v-1.822l.634 1.822h.236l.634-1.783v1.783h.278v-2.138h.001zM145.189 31.135h.674v-.277H144.2v.277h.713v1.862h.276v-1.862z"></path></g></svg>